# xmcd
#
# Track frame offsets:
#	150
#	35174
#	45469
#	88032
#	106828
#
# Disc length: 1757 seconds
#
# Revision: 1
# Processed by: cddbd v1.5.2PL0 Copyright (c) Steve Scherf et al.
# Submitted via: audiograbber 1.83.01
#
DISCID=3706db05
DTITLE=Grateful Dead - 79-12-10 Soldiers and Sailors Memorial Hall, Kansas City K
DTITLE=S
DYEAR=1900
DGENRE=
TTITLE0=Drums
TTITLE1=Space
TTITLE2=Wharf Rat
TTITLE3=Johnny B Goode
TTITLE4=US Blues
EXTD=
EXTT0=
EXTT1=
EXTT2=
EXTT3=
EXTT4=
PLAYORDER=
